#include "notesGodfather.h"

bool ledState = HIGH;
//c++ test:
int btnPin = 2;
int ledPin = 13;
int sndPin = 3;

/*int melody[] = {

  NOTE_C4, NOTE_G3, NOTE_G3, NOTE_A3, NOTE_G3, 0, NOTE_B3, NOTE_C4
};*/

int tempo = 80;

// change this to whichever pin you want to use
int buzzer = 8;

/*int melody[] = {
  
  // Dart Vader theme (Imperial March) - Star wars 
  // Score available at https://musescore.com/user/202909/scores/1141521
  // The tenor saxophone part was used
  
  NOTE_AS4,8, NOTE_AS4,8, NOTE_AS4,8,//1
  NOTE_F5,2, NOTE_C6,2,
  NOTE_AS5,8, NOTE_A5,8, NOTE_G5,8, NOTE_F6,2, NOTE_C6,4,  
  NOTE_AS5,8, NOTE_A5,8, NOTE_G5,8, NOTE_F6,2, NOTE_C6,4,  
  NOTE_AS5,8, NOTE_A5,8, NOTE_AS5,8, NOTE_G5,2, NOTE_C5,8, NOTE_C5,8, NOTE_C5,8,
  NOTE_F5,2, NOTE_C6,2,
  NOTE_AS5,8, NOTE_A5,8, NOTE_G5,8, NOTE_F6,2, NOTE_C6,4,  
  
  NOTE_AS5,8, NOTE_A5,8, NOTE_G5,8, NOTE_F6,2, NOTE_C6,4, //8  
  NOTE_AS5,8, NOTE_A5,8, NOTE_AS5,8, NOTE_G5,2, NOTE_C5,-8, NOTE_C5,16, 
  NOTE_D5,-4, NOTE_D5,8, NOTE_AS5,8, NOTE_A5,8, NOTE_G5,8, NOTE_F5,8,
  NOTE_F5,8, NOTE_G5,8, NOTE_A5,8, NOTE_G5,4, NOTE_D5,8, NOTE_E5,4,NOTE_C5,-8, NOTE_C5,16,
  NOTE_D5,-4, NOTE_D5,8, NOTE_AS5,8, NOTE_A5,8, NOTE_G5,8, NOTE_F5,8,
  
  NOTE_C6,-8, NOTE_G5,16, NOTE_G5,2, REST,8, NOTE_C5,8,//13
  NOTE_D5,-4, NOTE_D5,8, NOTE_AS5,8, NOTE_A5,8, NOTE_G5,8, NOTE_F5,8,
  NOTE_F5,8, NOTE_G5,8, NOTE_A5,8, NOTE_G5,4, NOTE_D5,8, NOTE_E5,4,NOTE_C6,-8, NOTE_C6,16,
  NOTE_F6,4, NOTE_DS6,8, NOTE_CS6,4, NOTE_C6,8, NOTE_AS5,4, NOTE_GS5,8, NOTE_G5,4, NOTE_F5,8,
  NOTE_C6,1
  
};*/

/*int melody[] = {
  
  // Dart Vader theme (Imperial March) - Star wars 
  // Score available at https://musescore.com/user/202909/scores/1141521
  // The tenor saxophone part was used
  
  NOTE_A4,-4, NOTE_A4,-4, NOTE_A4,16, NOTE_A4,16, NOTE_A4,16, NOTE_A4,16, NOTE_F4,8, REST,8,
  NOTE_A4,-4, NOTE_A4,-4, NOTE_A4,16, NOTE_A4,16, NOTE_A4,16, NOTE_A4,16, NOTE_F4,8, REST,8,
  NOTE_A4,4, NOTE_A4,4, NOTE_A4,4, NOTE_F4,-8, NOTE_C5,16,

  NOTE_A4,4, NOTE_F4,-8, NOTE_C5,16, NOTE_A4,2,//4
  NOTE_E5,4, NOTE_E5,4, NOTE_E5,4, NOTE_F5,-8, NOTE_C5,16,
  NOTE_A4,4, NOTE_F4,-8, NOTE_C5,16, NOTE_A4,2,
  
  NOTE_A5,4, NOTE_A4,-8, NOTE_A4,16, NOTE_A5,4, NOTE_GS5,-8, NOTE_G5,16, //7 
  NOTE_DS5,16, NOTE_D5,16, NOTE_DS5,8, REST,8, NOTE_A4,8, NOTE_DS5,4, NOTE_D5,-8, NOTE_CS5,16,

  NOTE_C5,16, NOTE_B4,16, NOTE_C5,16, REST,8, NOTE_F4,8, NOTE_GS4,4, NOTE_F4,-8, NOTE_A4,-16,//9
  NOTE_C5,4, NOTE_A4,-8, NOTE_C5,16, NOTE_E5,2,

  NOTE_A5,4, NOTE_A4,-8, NOTE_A4,16, NOTE_A5,4, NOTE_GS5,-8, NOTE_G5,16, //7 
  NOTE_DS5,16, NOTE_D5,16, NOTE_DS5,8, REST,8, NOTE_A4,8, NOTE_DS5,4, NOTE_D5,-8, NOTE_CS5,16,

  NOTE_C5,16, NOTE_B4,16, NOTE_C5,16, REST,8, NOTE_F4,8, NOTE_GS4,4, NOTE_F4,-8, NOTE_A4,-16,//9
  NOTE_A4,4, NOTE_F4,-8, NOTE_C5,16, NOTE_A4,2,
  
};*/

/*int melody[] = {

  //Based on the arrangement at https://www.flutetunes.com/tunes.php?id=169
  
  NOTE_AS4,-2,  NOTE_F4,8,  NOTE_F4,8,  NOTE_AS4,8,//1
  NOTE_GS4,16,  NOTE_FS4,16,  NOTE_GS4,-2,
  NOTE_AS4,-2,  NOTE_FS4,8,  NOTE_FS4,8,  NOTE_AS4,8,
  NOTE_A4,16,  NOTE_G4,16,  NOTE_A4,-2,
  REST,1, 

  NOTE_AS4,4,  NOTE_F4,-4,  NOTE_AS4,8,  NOTE_AS4,16,  NOTE_C5,16, NOTE_D5,16, NOTE_DS5,16,//7
  NOTE_F5,2,  NOTE_F5,8,  NOTE_F5,8,  NOTE_F5,8,  NOTE_FS5,16, NOTE_GS5,16,
  NOTE_AS5,-2,  NOTE_AS5,8,  NOTE_AS5,8,  NOTE_GS5,8,  NOTE_FS5,16,
  NOTE_GS5,-8,  NOTE_FS5,16,  NOTE_F5,2,  NOTE_F5,4, 

  NOTE_DS5,-8, NOTE_F5,16, NOTE_FS5,2, NOTE_F5,8, NOTE_DS5,8, //11
  NOTE_CS5,-8, NOTE_DS5,16, NOTE_F5,2, NOTE_DS5,8, NOTE_CS5,8,
  NOTE_C5,-8, NOTE_D5,16, NOTE_E5,2, NOTE_G5,8, 
  NOTE_F5,16, NOTE_F4,16, NOTE_F4,16, NOTE_F4,16,NOTE_F4,16,NOTE_F4,16,NOTE_F4,16,NOTE_F4,16,NOTE_F4,8, NOTE_F4,16,NOTE_F4,8,

  NOTE_AS4,4,  NOTE_F4,-4,  NOTE_AS4,8,  NOTE_AS4,16,  NOTE_C5,16, NOTE_D5,16, NOTE_DS5,16,//15
  NOTE_F5,2,  NOTE_F5,8,  NOTE_F5,8,  NOTE_F5,8,  NOTE_FS5,16, NOTE_GS5,16,
  NOTE_AS5,-2, NOTE_CS6,4,
  NOTE_C6,4, NOTE_A5,2, NOTE_F5,4,
  NOTE_FS5,-2, NOTE_AS5,4,
  NOTE_A5,4, NOTE_F5,2, NOTE_F5,4,

  NOTE_FS5,-2, NOTE_AS5,4,
  NOTE_A5,4, NOTE_F5,2, NOTE_D5,4,
  NOTE_DS5,-2, NOTE_FS5,4,
  NOTE_F5,4, NOTE_CS5,2, NOTE_AS4,4,
  NOTE_C5,-8, NOTE_D5,16, NOTE_E5,2, NOTE_G5,8, 
  NOTE_F5,16, NOTE_F4,16, NOTE_F4,16, NOTE_F4,16,NOTE_F4,16,NOTE_F4,16,NOTE_F4,16,NOTE_F4,16,NOTE_F4,8, NOTE_F4,16,NOTE_F4,8
  
};*/

/*int melody[] = {

  // Game of Thrones
  // Score available at https://musescore.com/user/8407786/scores/2156716

  NOTE_G4,8, NOTE_C4,8, NOTE_DS4,16, NOTE_F4,16, NOTE_G4,8, NOTE_C4,8, NOTE_DS4,16, NOTE_F4,16, //1
  NOTE_G4,8, NOTE_C4,8, NOTE_DS4,16, NOTE_F4,16, NOTE_G4,8, NOTE_C4,8, NOTE_DS4,16, NOTE_F4,16,
  NOTE_G4,8, NOTE_C4,8, NOTE_E4,16, NOTE_F4,16, NOTE_G4,8, NOTE_C4,8, NOTE_E4,16, NOTE_F4,16,
  NOTE_G4,8, NOTE_C4,8, NOTE_E4,16, NOTE_F4,16, NOTE_G4,8, NOTE_C4,8, NOTE_E4,16, NOTE_F4,16,
  NOTE_G4,-4, NOTE_C4,-4,//5

  NOTE_DS4,16, NOTE_F4,16, NOTE_G4,4, NOTE_C4,4, NOTE_DS4,16, NOTE_F4,16, //6
  NOTE_D4,-1, //7 and 8
  NOTE_F4,-4, NOTE_AS3,-4,
  NOTE_DS4,16, NOTE_D4,16, NOTE_F4,4, NOTE_AS3,-4,
  NOTE_DS4,16, NOTE_D4,16, NOTE_C4,-1, //11 and 12

  //repeats from 5
  NOTE_G4,-4, NOTE_C4,-4,//5

  NOTE_DS4,16, NOTE_F4,16, NOTE_G4,4, NOTE_C4,4, NOTE_DS4,16, NOTE_F4,16, //6
  NOTE_D4,-1, //7 and 8
  NOTE_F4,-4, NOTE_AS3,-4,
  NOTE_DS4,16, NOTE_D4,16, NOTE_F4,4, NOTE_AS3,-4,
  NOTE_DS4,16, NOTE_D4,16, NOTE_C4,-1, //11 and 12
  NOTE_G4,-4, NOTE_C4,-4,
  NOTE_DS4,16, NOTE_F4,16, NOTE_G4,4,  NOTE_C4,4, NOTE_DS4,16, NOTE_F4,16,

  NOTE_D4,-2,//15
  NOTE_F4,-4, NOTE_AS3,-4,
  NOTE_D4,-8, NOTE_DS4,-8, NOTE_D4,-8, NOTE_AS3,-8,
  NOTE_C4,-1,
  NOTE_C5,-2,
  NOTE_AS4,-2,
  NOTE_C4,-2,
  NOTE_G4,-2,
  NOTE_DS4,-2,
  NOTE_DS4,-4, NOTE_F4,-4, 
  NOTE_G4,-1,
  
  NOTE_C5,-2,//28
  NOTE_AS4,-2,
  NOTE_C4,-2,
  NOTE_G4,-2, 
  NOTE_DS4,-2,
  NOTE_DS4,-4, NOTE_D4,-4,
  NOTE_C5,8, NOTE_G4,8, NOTE_GS4,16, NOTE_AS4,16, NOTE_C5,8, NOTE_G4,8, NOTE_GS4,16, NOTE_AS4,16,
  NOTE_C5,8, NOTE_G4,8, NOTE_GS4,16, NOTE_AS4,16, NOTE_C5,8, NOTE_G4,8, NOTE_GS4,16, NOTE_AS4,16,
  
  REST,4, NOTE_GS5,16, NOTE_AS5,16, NOTE_C6,8, NOTE_G5,8, NOTE_GS5,16, NOTE_AS5,16,
  NOTE_C6,8, NOTE_G5,16, NOTE_GS5,16, NOTE_AS5,16, NOTE_C6,8, NOTE_G5,8, NOTE_GS5,16, NOTE_AS5,16,  
};*/

/*int melody[] = {

  // Pink Panther theme
  // Score available at https://musescore.com/benedictsong/the-pink-panther
  // Theme by Masato Nakamura, arranged by Teddy Mason

  REST,2, REST,4, REST,8, NOTE_DS4,8, 
  NOTE_E4,-4, REST,8, NOTE_FS4,8, NOTE_G4,-4, REST,8, NOTE_DS4,8,
  NOTE_E4,-8, NOTE_FS4,8,  NOTE_G4,-8, NOTE_C5,8, NOTE_B4,-8, NOTE_E4,8, NOTE_G4,-8, NOTE_B4,8,   
  NOTE_AS4,2, NOTE_A4,-16, NOTE_G4,-16, NOTE_E4,-16, NOTE_D4,-16, 
  NOTE_E4,2, REST,4, REST,8, NOTE_DS4,4,

  NOTE_E4,-4, REST,8, NOTE_FS4,8, NOTE_G4,-4, REST,8, NOTE_DS4,8,
  NOTE_E4,-8, NOTE_FS4,8,  NOTE_G4,-8, NOTE_C5,8, NOTE_B4,-8, NOTE_G4,8, NOTE_B4,-8, NOTE_E5,8,
  NOTE_DS5,1,   
  NOTE_D5,2, REST,4, REST,8, NOTE_DS4,8, 
  NOTE_E4,-4, REST,8, NOTE_FS4,8, NOTE_G4,-4, REST,8, NOTE_DS4,8,
  NOTE_E4,-8, NOTE_FS4,8,  NOTE_G4,-8, NOTE_C5,8, NOTE_B4,-8, NOTE_E4,8, NOTE_G4,-8, NOTE_B4,8,   
  
  NOTE_AS4,2, NOTE_A4,-16, NOTE_G4,-16, NOTE_E4,-16, NOTE_D4,-16, 
  NOTE_E4,-4, REST,4,
  REST,4, NOTE_E5,-8, NOTE_D5,8, NOTE_B4,-8, NOTE_A4,8, NOTE_G4,-8, NOTE_E4,-8,
  NOTE_AS4,16, NOTE_A4,-8, NOTE_AS4,16, NOTE_A4,-8, NOTE_AS4,16, NOTE_A4,-8, NOTE_AS4,16, NOTE_A4,-8,   
  NOTE_G4,-16, NOTE_E4,-16, NOTE_D4,-16, NOTE_E4,16, NOTE_E4,16, NOTE_E4,2,
 
};*/

/*int melody[] = {

  
  NOTE_E4,4,  NOTE_E4,4,  NOTE_F4,4,  NOTE_G4,4,//1
  NOTE_G4,4,  NOTE_F4,4,  NOTE_E4,4,  NOTE_D4,4,
  NOTE_C4,4,  NOTE_C4,4,  NOTE_D4,4,  NOTE_E4,4,
  NOTE_E4,-4, NOTE_D4,8,  NOTE_D4,2,

  NOTE_E4,4,  NOTE_E4,4,  NOTE_F4,4,  NOTE_G4,4,//4
  NOTE_G4,4,  NOTE_F4,4,  NOTE_E4,4,  NOTE_D4,4,
  NOTE_C4,4,  NOTE_C4,4,  NOTE_D4,4,  NOTE_E4,4,
  NOTE_D4,-4,  NOTE_C4,8,  NOTE_C4,2,

  NOTE_D4,4,  NOTE_D4,4,  NOTE_E4,4,  NOTE_C4,4,//8
  NOTE_D4,4,  NOTE_E4,8,  NOTE_F4,8,  NOTE_E4,4, NOTE_C4,4,
  NOTE_D4,4,  NOTE_E4,8,  NOTE_F4,8,  NOTE_E4,4, NOTE_D4,4,
  NOTE_C4,4,  NOTE_D4,4,  NOTE_G3,2,

  NOTE_E4,4,  NOTE_E4,4,  NOTE_F4,4,  NOTE_G4,4,//12
  NOTE_G4,4,  NOTE_F4,4,  NOTE_E4,4,  NOTE_D4,4,
  NOTE_C4,4,  NOTE_C4,4,  NOTE_D4,4,  NOTE_E4,4,
  NOTE_D4,-4,  NOTE_C4,8,  NOTE_C4,2
  
};*/

/*int melody[] = {

  // Take on me, by A-ha
  // Score available at https://musescore.com/user/27103612/scores/4834399
  // Arranged by Edward Truong

  NOTE_FS5,8, NOTE_FS5,8,NOTE_D5,8, NOTE_B4,8, REST,8, NOTE_B4,8, REST,8, NOTE_E5,8, 
  REST,8, NOTE_E5,8, REST,8, NOTE_E5,8, NOTE_GS5,8, NOTE_GS5,8, NOTE_A5,8, NOTE_B5,8,
  NOTE_A5,8, NOTE_A5,8, NOTE_A5,8, NOTE_E5,8, REST,8, NOTE_D5,8, REST,8, NOTE_FS5,8, 
  REST,8, NOTE_FS5,8, REST,8, NOTE_FS5,8, NOTE_E5,8, NOTE_E5,8, NOTE_FS5,8, NOTE_E5,8,
  NOTE_FS5,8, NOTE_FS5,8,NOTE_D5,8, NOTE_B4,8, REST,8, NOTE_B4,8, REST,8, NOTE_E5,8, 
  
  REST,8, NOTE_E5,8, REST,8, NOTE_E5,8, NOTE_GS5,8, NOTE_GS5,8, NOTE_A5,8, NOTE_B5,8,
  NOTE_A5,8, NOTE_A5,8, NOTE_A5,8, NOTE_E5,8, REST,8, NOTE_D5,8, REST,8, NOTE_FS5,8, 
  REST,8, NOTE_FS5,8, REST,8, NOTE_FS5,8, NOTE_E5,8, NOTE_E5,8, NOTE_FS5,8, NOTE_E5,8,
  NOTE_FS5,8, NOTE_FS5,8,NOTE_D5,8, NOTE_B4,8, REST,8, NOTE_B4,8, REST,8, NOTE_E5,8, 
  REST,8, NOTE_E5,8, REST,8, NOTE_E5,8, NOTE_GS5,8, NOTE_GS5,8, NOTE_A5,8, NOTE_B5,8,
  
  NOTE_A5,8, NOTE_A5,8, NOTE_A5,8, NOTE_E5,8, REST,8, NOTE_D5,8, REST,8, NOTE_FS5,8, 
  REST,8, NOTE_FS5,8, REST,8, NOTE_FS5,8, NOTE_E5,8, NOTE_E5,8, NOTE_FS5,8, NOTE_E5,8,
  
};*/

int melody[] = {

  // The Godfather theme
  // Score available at https://musescore.com/user/35463/scores/55160

  REST, 4, REST, 8, REST, 8, REST, 8, NOTE_E4, 8, NOTE_A4, 8, NOTE_C5, 8, //1
  NOTE_B4, 8, NOTE_A4, 8, NOTE_C5, 8, NOTE_A4, 8, NOTE_B4, 8, NOTE_A4, 8, NOTE_F4, 8, NOTE_G4, 8,
  NOTE_E4, 2, NOTE_E4, 8, NOTE_A4, 8, NOTE_C5, 8,
  NOTE_B4, 8, NOTE_A4, 8, NOTE_C5, 8, NOTE_A4, 8, NOTE_C5, 8, NOTE_A4, 8, NOTE_E4, 8, NOTE_DS4, 8,
  
  NOTE_D4, 2, NOTE_D4, 8, NOTE_F4, 8, NOTE_GS4, 8, //5
  NOTE_B4, 2, NOTE_D4, 8, NOTE_F4, 8, NOTE_GS4, 8,
  NOTE_A4, 2, NOTE_C4, 8, NOTE_C4, 8, NOTE_G4, 8, 
  NOTE_F4, 8, NOTE_E4, 8, NOTE_G4, 8, NOTE_F4, 8, NOTE_F4, 8, NOTE_E4, 8, NOTE_E4, 8, NOTE_GS4, 8,

  NOTE_A4, 2, REST,8, NOTE_A4, 8, NOTE_A4, 8, NOTE_GS4, 8, //9
  NOTE_G4, 2, NOTE_B4, 8, NOTE_A4, 8, NOTE_F4, 8, 
  NOTE_E4, 2, NOTE_E4, 8, NOTE_G4, 8, NOTE_E4, 8,
  NOTE_D4, 2, NOTE_D4, 8, NOTE_D4, 8, NOTE_F4, 8, NOTE_DS4, 8, 
   
  NOTE_E4, 2, REST, 8, NOTE_E4, 8, NOTE_A4, 8, NOTE_C5, 8, //13

  //repeats from 2
  NOTE_B4, 8, NOTE_A4, 8, NOTE_C5, 8, NOTE_A4, 8, NOTE_B4, 8, NOTE_A4, 8, NOTE_F4, 8, NOTE_G4, 8, //2
  NOTE_E4, 2, NOTE_E4, 8, NOTE_A4, 8, NOTE_C5, 8,
  NOTE_B4, 8, NOTE_A4, 8, NOTE_C5, 8, NOTE_A4, 8, NOTE_C5, 8, NOTE_A4, 8, NOTE_E4, 8, NOTE_DS4, 8,
  
  NOTE_D4, 2, NOTE_D4, 8, NOTE_F4, 8, NOTE_GS4, 8, //5
  NOTE_B4, 2, NOTE_D4, 8, NOTE_F4, 8, NOTE_GS4, 8,
  NOTE_A4, 2, NOTE_C4, 8, NOTE_C4, 8, NOTE_G4, 8, 
  NOTE_F4, 8, NOTE_E4, 8, NOTE_G4, 8, NOTE_F4, 8, NOTE_F4, 8, NOTE_E4, 8, NOTE_E4, 8, NOTE_GS4, 8,

  NOTE_A4, 2, REST,8, NOTE_A4, 8, NOTE_A4, 8, NOTE_GS4, 8, //9
  NOTE_G4, 2, NOTE_B4, 8, NOTE_A4, 8, NOTE_F4, 8, 
  NOTE_E4, 2, NOTE_E4, 8, NOTE_G4, 8, NOTE_E4, 8,
  NOTE_D4, 2, NOTE_D4, 8, NOTE_D4, 8, NOTE_F4, 8, NOTE_DS4, 8, 
   
  NOTE_E4, 2 //13
};


// note durations: 4 = quarter note, 8 = eighth note, etc.:
int noteDurations[] = {

  4, 8, 8, 4, 4, 4, 4, 4
};

// sizeof gives the number of bytes, each int value is composed of two bytes (16 bits)
// there are two values per note (pitch and duration), so for each note there are four bytes
int notes = sizeof(melody) / sizeof(melody[0]) / 2;

// this calculates the duration of a whole note in ms
int wholenote = (60000 * 4) / tempo;

int divider = 0, noteDuration = 0;

void playMelody()
{
  /*for (int thisNote = 0; thisNote < 8; thisNote++) {
    // to calculate the note duration, take one second divided by the note type.
    //e.g. quarter note = 1000 / 4, eighth note = 1000/8, etc.
    int noteDuration = 1000 / noteDurations[thisNote];
    tone(8, melody[thisNote], noteDuration);
    // to distinguish the notes, set a minimum time between them.

    // the note's duration + 30% seems to work well:
    int pauseBetweenNotes = noteDuration * 1.30;
    delay(pauseBetweenNotes);

    // stop the tone playing:
    noTone(8);
  }*/

  for (int thisNote = 0; thisNote < notes * 2; thisNote = thisNote + 2) {

    // calculates the duration of each note
    divider = melody[thisNote + 1];
    if (divider > 0) {
      // regular note, just proceed
      noteDuration = (wholenote) / divider;
    } else if (divider < 0) {
      // dotted notes are represented with negative durations!!
      noteDuration = (wholenote) / abs(divider);
      noteDuration *= 1.5; // increases the duration in half for dotted notes
    }

    // we only play the note for 90% of the duration, leaving 10% as a pause
    tone(buzzer, melody[thisNote], noteDuration * 0.9);

    // Wait for the specief duration before playing the next note.
    delay(noteDuration);

    // stop the waveform generation before the next note.
    noTone(buzzer);
  }
}

void setup() {
  // put your setup code here, to run once:
  pinMode(ledPin, OUTPUT);
  pinMode(8, OUTPUT);
  pinMode(btnPin, INPUT);
  
  Serial.begin(9600);
  Serial.print("bonjour");

  playMelody();
}



void loop() {
    ledState = digitalRead(btnPin);
    digitalWrite(ledPin, ledState);
    if(ledState == HIGH) playMelody();
    //analogWrite(sndPin, ledState*5);
    delay(10);
    //obj.var = !obj.getVar();
    //Serial.print("dfvdf0");
}
